<?xml version="1.0" encoding="utf-8"?>
<!-- Generator: Adobe Illustrator 16.0.3, SVG Export Plug-In . SVG Version: 6.00 Build 0)  -->
<!DOCTYPE svg PUBLIC "-//W3C//DTD SVG 1.1//EN" "http://www.w3.org/Graphics/SVG/1.1/DTD/svg11.dtd">
<svg version="1.1" id="Layer_1" xmlns="http://www.w3.org/2000/svg" xmlns:xlink="http://www.w3.org/1999/xlink" x="0px" y="0px"
	 width="316.3px" height="432.684px" viewBox="143.941 184.86 316.3 432.684" enable-background="new 143.941 184.86 316.3 432.684"
	 xml:space="preserve">
<g>
	<path fill="#FFDD00" d="M324.36,438.228c11.016,7.345,18.359,19.585,18.359,33.66c0,25.093-22.644,44.677-48.96,39.168
		c-15.3-3.06-27.54-15.3-30.6-30.6c-3.672-17.748,4.284-33.66,17.136-42.229v-34.884h-70.38v141.984
		c0,12.852,10.404,23.868,23.868,23.868h138.924c12.852,0,23.868-10.404,23.868-23.868V403.344H324.36V438.228z"/>
	<path fill="#231F20" d="M359.244,617.544H247.248c-14.688,0-26.316-11.628-26.316-26.316v-22.031
		c0-6.12,4.896-11.017,11.016-11.017h142.596c6.12,0,11.016,4.896,11.016,11.017v22.031
		C386.172,605.916,373.932,617.544,359.244,617.544z M242.964,580.212v10.404c0,1.836,1.836,3.672,3.672,3.672h112.608
		c1.836,0,3.672-1.836,3.672-3.672v-10.404H242.964z"/>
	<path fill="#231F20" d="M426.564,536.76h-29.988c-6.12,0-11.017-4.896-11.017-11.016V391.716c0-6.12,4.896-11.016,11.017-11.016
		h29.988c18.972,0,33.659,15.3,33.659,33.66v88.128C460.836,521.46,445.536,536.76,426.564,536.76z M407.592,514.116h18.973
		c6.119,0,11.016-4.896,11.016-11.017V414.36c0-6.12-4.896-11.017-11.016-11.017h-18.973V514.116z"/>
	<path fill="#231F20" d="M376.38,580.212H230.112c-17.136,0-31.824-14.076-31.824-31.824V345.816c0-6.12,4.896-11.016,11.016-11.016
		h70.992c6.12,0,11.016,4.896,11.016,11.016v93.024c0,3.672-1.836,7.344-4.896,9.18c-7.956,5.509-12.852,14.688-12.852,23.868
		c0,15.912,12.852,28.765,28.764,28.765s28.764-12.853,28.764-28.765c0-9.792-4.896-18.972-12.852-23.868
		c-3.061-1.836-4.896-5.508-4.896-9.18v-93.024c0-6.12,4.896-11.016,11.017-11.016h71.604c6.12,0,11.017,4.896,11.017,11.016V549
		C407.592,566.136,393.516,580.212,376.38,580.212z M221.544,356.832V549c0,4.896,4.284,9.18,9.18,9.18h146.268
		c4.896,0,9.18-4.283,9.18-9.18V356.832h-48.96v75.888c11.628,9.792,18.36,23.868,18.36,39.168
		c0,28.152-23.256,51.408-51.408,51.408s-51.408-23.256-51.408-51.408c0-15.3,6.732-29.376,18.36-39.168v-75.888H221.544z"/>
	<path fill="#231F20" d="M302.94,523.296c-3.672,0-7.344-0.612-11.016-1.224c-19.584-4.284-35.496-19.584-39.168-39.168
		c-4.284-18.973,2.448-37.944,16.524-50.185v-75.888h-48.348v29.376c0,17.748-14.688,32.436-32.436,32.436
		s-32.436-14.688-32.436-32.436v-56.916c-14.688-20.196-15.912-47.124-4.284-70.992c9.792-18.972,28.764-31.212,50.184-33.048
		c7.344-15.912,23.868-26.928,41.616-26.928c7.344,0,14.688,1.836,21.42,5.508c15.3-12.24,33.66-18.972,53.855-18.972
		c38.557,0,72.217,25.704,82.62,61.812c25.093,7.956,41.616,32.436,39.168,58.752c-2.447,28.764-28.151,51.408-57.527,51.408
		h-47.124v75.888c11.628,9.792,18.359,23.868,18.359,39.168s-6.731,29.988-18.972,39.78
		C326.196,519.624,314.568,523.296,302.94,523.296z M209.916,334.188h70.992c6.12,0,11.016,4.896,11.016,11.016v93.023
		c0,3.673-1.836,7.345-4.896,9.181c-10.404,6.731-14.688,18.359-12.24,30.6c2.448,11.017,11.016,19.584,22.032,22.032
		c9.18,1.836,17.749,0,24.48-5.508c6.732-5.508,10.404-13.464,10.404-22.645c0-9.792-4.896-18.972-12.853-23.868
		c-3.06-1.836-4.896-5.508-4.896-9.18v-93.024c0-6.12,4.896-11.016,11.016-11.016h58.141c18.359,0,33.66-13.464,34.884-30.6
		c1.836-17.748-11.016-33.66-28.152-36.108c-4.896-0.612-8.567-4.284-9.18-9.18c-6.12-29.376-31.824-50.796-62.424-50.796
		c-17.136,0-33.048,6.732-44.676,18.36c-4.284,4.284-11.016,4.284-15.3,0.612c-3.06-2.448-7.956-5.508-14.688-5.508
		c-11.016,0-20.196,7.344-22.644,18.36c-1.224,5.508-6.12,9.18-11.628,8.568c-15.912-0.612-30.6,7.344-37.332,20.808
		c-8.568,16.524-6.732,34.884,4.284,48.96c1.836,1.836,2.448,4.284,2.448,7.344v60.588c0,5.508,4.284,9.792,9.792,9.792
		c5.508,0,9.792-4.284,9.792-9.792v-40.392C198.9,339.084,203.796,334.188,209.916,334.188z"/>
	<path fill="#231F20" d="M272.34,407.016h-7.344c-1.836,0-3.672-1.836-3.672-3.672s1.836-3.672,3.672-3.672h7.344
		c1.836,0,3.672,1.836,3.672,3.672C276.012,405.792,274.176,407.016,272.34,407.016z M249.696,407.016
		c-1.836,0-3.672-1.836-3.672-3.672s1.836-3.672,3.672-3.672c1.836,0,3.672,1.836,3.672,3.672
		C253.368,405.792,252.144,407.016,249.696,407.016z M227.052,407.016h-7.344c-1.836,0-3.672-1.836-3.672-3.672
		s1.836-3.672,3.672-3.672h7.344c1.836,0,3.672,1.836,3.672,3.672C230.724,405.792,229.5,407.016,227.052,407.016z"/>
	<path fill="#231F20" d="M388.008,407.016h-7.344c-1.836,0-3.672-1.836-3.672-3.672s1.836-3.672,3.672-3.672h7.344
		c1.836,0,3.672,1.836,3.672,3.672C391.68,405.792,389.844,407.016,388.008,407.016z M365.364,407.016
		c-1.836,0-3.672-1.836-3.672-3.672s1.836-3.672,3.672-3.672s3.672,1.836,3.672,3.672
		C369.036,405.792,367.2,407.016,365.364,407.016z M342.72,407.016h-7.344c-1.836,0-3.672-1.836-3.672-3.672
		s1.836-3.672,3.672-3.672h7.344c1.836,0,3.672,1.836,3.672,3.672C346.392,405.792,344.556,407.016,342.72,407.016z"/>
</g>
</svg>
